<?xml version="1.0" encoding="UTF-8" ?>
<!DOCTYPE svg PUBLIC "-//W3C//DTD SVG 1.1//EN" "http://www.w3.org/Graphics/SVG/1.1/DTD/svg11.dtd">
<svg width="315pt" height="315pt" viewBox="0 0 315 315" version="1.1" xmlns="http://www.w3.org/2000/svg">
<g id="#999999ff">
<path fill="#999999" opacity="1.00" d=" M 0.00 0.00 L 0.26 0.00 C 0.19 0.06 0.06 0.19 0.00 0.26 L 0.00 0.00 Z" />
<path fill="#999999" opacity="1.00" d=" M 159.07 24.95 C 160.70 20.89 165.50 20.90 169.18 20.67 C 175.79 22.23 182.76 23.60 188.37 27.68 C 191.70 30.00 194.93 32.46 198.36 34.64 C 202.80 37.54 207.74 39.72 211.66 43.36 C 214.88 46.20 217.28 49.80 219.41 53.50 C 227.94 67.92 234.78 83.66 237.43 100.29 C 237.88 107.91 240.18 115.32 239.90 122.99 C 239.75 133.28 240.27 143.60 239.12 153.85 C 238.25 159.42 236.32 164.74 235.00 170.21 C 233.05 178.06 226.45 183.61 224.03 191.25 C 223.10 193.12 225.12 194.45 225.92 195.92 C 233.54 184.77 243.19 174.75 247.75 161.77 C 253.74 163.74 258.11 168.54 263.49 171.62 C 270.33 176.48 277.82 180.27 285.07 184.44 C 284.39 192.64 278.23 198.46 273.68 204.75 C 267.19 213.79 259.24 221.63 252.26 230.28 C 246.64 236.41 242.59 243.80 236.73 249.73 C 230.12 256.45 223.49 263.19 216.11 269.06 C 211.61 272.34 206.79 275.17 201.95 277.91 C 211.17 266.40 219.77 254.26 225.74 240.72 C 229.51 231.07 233.64 221.48 235.31 211.18 C 236.97 204.28 238.86 197.37 238.90 190.21 C 229.44 204.01 222.72 219.82 211.00 232.01 C 207.19 236.15 203.81 240.65 200.44 245.16 C 201.11 242.54 201.73 239.91 202.30 237.27 C 194.26 241.39 190.02 250.20 181.85 254.10 C 181.34 254.15 180.32 254.25 179.81 254.30 C 182.52 249.90 186.27 246.24 188.88 241.76 C 192.26 236.03 196.51 230.85 199.50 224.88 C 202.37 219.57 204.95 214.04 206.22 208.10 C 200.50 210.54 197.39 216.14 192.81 220.02 C 193.00 219.62 193.39 218.82 193.58 218.42 C 195.90 214.38 198.46 210.46 200.33 206.17 C 205.58 196.55 211.12 186.99 214.75 176.61 C 217.09 170.18 218.16 163.37 220.60 156.98 C 221.44 161.15 222.10 165.55 224.89 168.96 C 227.06 165.65 228.52 161.95 229.31 158.08 C 230.48 152.68 233.43 147.67 233.28 142.02 C 233.28 134.66 233.54 127.31 233.29 119.96 C 232.96 110.07 228.52 101.05 224.97 92.03 C 220.19 82.36 215.68 71.84 206.69 65.27 C 201.93 62.00 197.51 57.83 191.73 56.46 C 191.98 58.01 192.23 59.56 192.59 61.09 C 194.11 68.35 199.04 75.03 197.65 82.74 C 197.55 85.28 194.83 86.03 192.95 87.00 C 190.75 87.65 188.48 88.07 186.21 88.29 C 181.74 88.06 177.04 87.38 173.37 84.62 C 168.44 81.25 165.54 75.70 164.15 70.02 C 161.62 60.95 162.53 51.47 161.97 42.18 C 155.29 44.86 151.51 51.13 147.73 56.84 C 149.89 45.72 154.01 35.05 159.07 24.95 Z" />
<path fill="#999999" opacity="1.00" d=" M 280.99 75.50 C 282.69 72.87 285.56 72.19 288.50 72.34 C 288.46 73.99 288.41 75.63 288.37 77.28 C 285.88 76.83 283.41 76.25 280.99 75.50 Z" />
<path fill="#999999" opacity="1.00" d=" M 18.41 80.07 C 18.91 78.57 19.81 77.25 20.58 75.89 C 21.75 77.09 22.94 78.27 24.12 79.47 C 22.63 81.24 21.17 83.04 19.74 84.86 C 19.24 83.28 18.61 81.72 18.41 80.07 Z" />
<path fill="#999999" opacity="1.00" d=" M 280.18 78.64 C 283.91 79.66 286.98 81.93 288.97 85.25 C 287.44 86.03 285.91 86.80 284.38 87.58 C 284.35 89.16 284.32 90.75 284.30 92.33 C 282.89 92.68 281.49 93.02 280.10 93.37 C 280.46 95.08 280.84 96.79 281.22 98.49 C 279.58 99.07 277.94 99.65 276.31 100.24 C 276.61 101.84 276.91 103.43 277.22 105.03 C 276.24 105.83 275.27 106.64 274.30 107.45 C 274.15 108.80 274.00 110.15 273.86 111.51 C 272.75 112.20 271.64 112.89 270.54 113.58 C 270.35 115.08 270.16 116.59 269.96 118.09 C 269.01 118.81 268.07 119.53 267.14 120.26 C 266.96 123.43 265.55 126.27 263.26 128.45 C 260.58 128.26 257.89 128.16 255.20 128.10 C 256.70 129.95 258.31 131.69 259.91 133.46 C 258.68 133.68 257.44 133.84 256.20 133.97 C 255.05 133.53 253.91 133.06 252.79 132.56 C 255.08 125.13 259.48 118.60 262.73 111.57 C 269.11 100.89 273.55 89.16 280.18 78.64 M 279.46 81.10 C 279.68 83.99 280.95 86.34 284.04 86.75 C 284.36 84.92 284.70 83.10 284.92 81.26 C 283.10 81.17 281.27 81.14 279.46 81.10 M 275.54 88.49 C 276.51 90.06 277.49 91.63 278.46 93.21 C 280.40 91.89 281.91 90.09 282.64 87.84 C 280.27 88.02 277.90 88.23 275.54 88.49 M 272.46 95.37 C 273.10 96.73 273.73 98.10 274.37 99.47 C 277.78 99.56 278.93 96.53 279.41 93.68 C 277.03 93.94 274.68 94.45 272.46 95.37 M 268.56 101.73 C 270.07 103.40 271.61 105.05 273.19 106.66 C 274.20 104.41 274.93 102.04 275.40 99.61 C 273.07 100.17 270.79 100.87 268.56 101.73 M 266.61 107.71 C 266.73 108.47 266.97 109.99 267.08 110.75 C 268.22 111.37 269.35 111.99 270.49 112.62 C 271.52 110.74 272.48 108.81 273.36 106.85 C 271.11 107.14 268.85 107.40 266.61 107.71 M 264.06 113.80 C 263.68 114.38 262.93 115.52 262.56 116.10 C 263.79 117.28 265.02 118.47 266.26 119.66 C 267.01 117.76 267.78 115.86 268.52 113.95 C 267.03 113.90 265.55 113.85 264.06 113.80 M 259.55 120.15 C 259.84 122.78 261.22 125.00 263.12 126.78 C 264.10 124.59 264.88 122.32 265.52 120.01 C 263.53 120.05 261.53 120.10 259.55 120.15 Z" />
<path fill="#999999" opacity="1.00" d=" M 27.72 83.64 C 29.11 83.44 30.50 83.30 31.90 83.16 C 31.65 85.28 31.44 87.40 31.05 89.50 C 30.10 91.58 28.97 93.57 27.85 95.57 C 30.02 95.73 32.18 95.91 34.35 96.10 C 33.58 93.98 32.81 91.86 31.91 89.79 C 33.02 90.11 34.14 90.43 35.26 90.73 C 35.32 92.33 35.38 93.92 35.45 95.52 C 37.13 95.45 38.80 95.37 40.48 95.30 C 39.86 97.25 39.25 99.19 38.65 101.15 C 37.95 103.43 37.24 105.71 36.54 107.99 C 38.50 107.99 40.47 108.00 42.43 108.01 C 41.47 105.87 40.52 103.72 39.46 101.63 C 40.12 101.96 41.44 102.63 42.10 102.97 C 42.60 104.47 43.08 105.98 43.57 107.49 C 44.79 107.93 46.01 108.36 47.23 108.79 C 47.34 110.42 47.44 112.05 47.55 113.68 C 48.96 113.73 50.37 113.78 51.78 113.83 C 51.56 115.79 51.35 117.76 51.14 119.74 C 52.45 119.98 53.77 120.22 55.08 120.46 C 55.22 122.03 55.34 123.60 55.56 125.16 C 55.86 125.29 56.46 125.54 56.76 125.67 C 54.49 127.71 52.80 130.27 51.81 133.16 C 54.41 132.14 56.93 130.92 59.33 129.48 C 59.25 130.75 59.18 132.03 59.11 133.31 C 57.25 134.13 55.45 135.15 53.45 135.60 C 48.84 130.98 46.08 124.94 42.45 119.59 C 35.20 109.12 28.60 98.23 21.50 87.66 C 23.12 86.56 24.74 85.47 26.40 84.44 C 25.67 86.26 25.05 88.12 24.42 89.98 C 26.39 90.00 28.37 90.01 30.34 90.02 C 29.47 87.89 28.59 85.77 27.72 83.64 M 31.39 101.49 C 33.72 101.81 36.09 101.80 38.41 101.37 C 37.49 99.70 36.84 97.72 35.19 96.60 C 33.79 98.12 32.60 99.81 31.39 101.49 M 40.37 113.90 C 41.88 113.99 43.40 114.07 44.92 114.16 C 45.21 113.59 45.78 112.47 46.07 111.90 C 45.22 110.79 44.38 109.67 43.53 108.56 C 42.33 110.25 41.29 112.04 40.37 113.90 M 46.28 114.29 C 45.72 116.21 45.17 118.15 44.63 120.08 C 46.58 120.03 48.52 119.98 50.47 119.93 C 49.66 117.65 48.37 115.59 46.28 114.29 M 50.32 120.44 C 49.41 122.13 48.49 123.83 47.56 125.52 C 49.84 125.78 52.13 125.99 54.42 126.21 C 54.26 123.51 52.82 121.45 50.32 120.44 Z" />
<path fill="#999999" opacity="1.00" d=" M 200.45 111.57 C 205.36 110.45 210.10 108.77 214.84 107.09 C 215.55 114.82 214.54 123.83 207.98 128.92 C 201.03 133.70 192.45 136.36 183.99 135.65 C 178.89 135.30 174.16 132.98 169.04 132.70 C 162.85 132.36 156.34 131.89 150.49 134.36 C 146.83 135.83 142.96 137.00 138.97 136.78 C 132.71 136.85 127.20 133.53 121.52 131.39 C 117.20 129.54 111.92 127.81 110.18 122.95 C 108.70 118.13 109.24 112.99 109.21 108.02 C 113.71 109.59 118.26 111.05 122.90 112.18 C 129.00 113.69 135.33 112.83 141.53 113.54 C 154.28 115.01 167.20 114.64 179.99 114.01 C 186.80 113.15 193.76 113.30 200.45 111.57 M 115.62 114.64 C 115.52 116.12 114.86 117.80 115.80 119.14 C 118.17 122.88 121.93 125.71 126.20 126.94 C 134.10 129.13 143.37 129.31 150.03 123.81 C 146.67 121.74 142.91 120.38 138.97 119.98 C 131.02 119.03 123.32 116.74 115.62 114.64 M 184.74 119.65 C 180.45 120.30 176.22 121.38 172.16 122.93 C 176.91 128.20 184.58 127.65 191.03 128.19 C 198.63 128.81 206.19 122.86 206.51 115.06 C 199.26 116.61 192.08 118.53 184.74 119.65 Z" />
<path fill="#999999" opacity="1.00" d=" M 35.16 179.18 C 37.33 176.78 39.91 174.79 42.35 172.66 C 47.75 181.08 50.72 190.77 55.35 199.62 C 57.77 204.41 60.79 208.86 63.31 213.60 C 67.44 221.31 73.16 228.05 77.06 235.90 C 68.99 229.73 62.27 222.04 55.34 214.66 C 51.62 210.73 47.97 206.71 44.78 202.33 C 40.47 196.46 35.73 190.62 33.63 183.53 C 32.88 181.88 34.15 180.37 35.16 179.18 Z" />
<path fill="#999999" opacity="1.00" d=" M 110.21 186.71 C 112.38 190.41 113.27 194.71 115.57 198.35 C 121.92 207.68 127.27 217.73 134.73 226.28 C 140.27 232.75 147.15 237.85 153.13 243.88 C 156.96 247.74 160.99 251.38 165.06 254.98 C 175.06 264.75 186.67 272.84 199.24 278.94 C 195.09 281.13 191.08 283.62 187.62 286.83 C 176.89 279.95 169.27 269.57 160.64 260.42 C 156.90 256.49 153.72 250.81 147.64 250.56 C 147.88 257.07 151.95 262.37 155.24 267.68 C 160.69 276.31 167.86 283.63 174.07 291.67 C 168.96 290.57 166.07 285.84 162.38 282.61 C 153.85 274.83 144.96 267.39 137.31 258.71 C 131.30 252.31 126.04 245.23 119.62 239.21 C 116.69 235.66 114.86 231.37 112.98 227.21 C 110.78 221.71 108.07 216.43 106.14 210.83 C 110.16 214.70 112.13 220.05 115.65 224.30 C 120.20 229.74 124.86 235.09 129.27 240.64 C 130.44 239.51 131.53 238.31 132.56 237.05 C 130.67 234.43 128.71 231.87 126.67 229.38 C 122.05 223.97 120.56 216.83 117.72 210.47 C 115.04 202.62 111.14 195.04 110.21 186.71 Z" />
<path fill="#999999" opacity="1.00" d=" M 134.08 200.22 C 140.54 201.80 146.87 203.84 153.17 205.95 C 164.89 209.40 177.01 205.68 188.28 202.28 C 184.17 211.23 177.50 218.69 170.28 225.27 C 167.45 227.80 164.84 230.70 161.43 232.49 C 158.94 233.78 156.67 231.60 155.00 230.00 C 150.40 225.26 145.56 220.64 142.07 214.97 C 139.13 210.21 136.60 205.21 134.08 200.22 Z" />
</g>
<g id="#000000ff">
<path fill="#000000" opacity="1.00" d=" M 131.39 25.45 C 141.16 20.17 151.71 15.46 163.00 15.19 C 175.07 15.68 186.86 20.21 196.35 27.67 C 202.72 32.74 210.79 35.51 216.28 41.70 C 221.25 47.34 225.11 53.86 228.43 60.58 C 231.55 66.37 234.54 72.28 236.34 78.63 C 240.15 89.39 243.44 100.51 243.78 112.00 C 243.86 115.44 244.25 118.86 244.85 122.25 C 246.14 122.15 247.43 122.06 248.72 121.98 C 253.79 112.95 259.41 104.23 264.00 94.94 C 267.09 88.78 270.57 82.82 273.61 76.63 C 275.59 72.58 278.32 68.52 282.61 66.68 C 287.16 65.09 292.76 66.30 295.85 70.12 C 298.44 73.18 301.10 77.30 299.42 81.43 C 297.20 86.94 293.87 91.92 291.10 97.16 C 285.57 106.18 281.12 115.80 275.90 124.99 C 274.22 128.05 271.91 130.76 270.70 134.06 C 271.65 139.97 280.50 142.20 279.80 148.75 C 277.52 154.14 273.10 158.31 270.61 163.63 C 278.70 167.14 286.85 170.77 294.06 175.93 C 295.58 177.29 297.81 178.78 297.73 181.06 C 295.15 195.85 286.86 208.94 277.00 219.99 C 270.25 227.91 263.37 235.72 256.91 243.88 C 245.32 259.30 229.81 271.11 214.14 282.10 C 203.97 289.08 192.86 294.48 181.69 299.64 C 175.49 302.51 168.38 304.13 161.64 302.28 C 156.03 300.47 151.32 296.80 146.49 293.55 C 136.82 287.38 128.05 279.96 118.70 273.34 C 94.12 257.22 70.82 238.76 51.39 216.60 C 43.83 208.67 36.76 200.12 31.62 190.40 C 30.07 187.15 26.75 183.45 28.65 179.72 C 33.04 174.41 38.17 169.72 43.56 165.45 C 44.20 164.78 45.83 163.52 44.71 162.60 C 41.48 157.94 35.14 154.43 35.13 148.22 C 37.33 143.35 42.03 140.13 45.29 135.98 C 37.96 127.81 33.24 117.85 27.32 108.71 C 23.04 101.43 18.01 94.64 13.61 87.45 C 11.74 84.52 11.62 80.78 12.53 77.50 C 14.45 72.41 19.56 68.50 25.01 68.17 C 30.92 68.28 35.68 72.63 38.39 77.58 C 44.01 86.67 49.25 96.00 54.96 105.04 C 58.83 110.61 62.91 116.04 66.26 121.95 C 71.08 120.16 76.87 119.52 80.41 115.43 C 82.12 105.39 83.14 95.12 86.55 85.45 C 92.28 69.57 100.61 54.51 111.88 41.89 C 117.27 35.24 123.99 29.73 131.39 25.45 M 135.85 27.82 C 128.61 31.56 121.87 36.34 116.51 42.52 C 109.37 50.98 102.42 59.84 98.02 70.09 C 95.40 76.21 94.68 82.88 93.39 89.36 C 92.27 95.15 91.44 101.02 91.40 106.93 C 94.63 101.92 96.04 96.03 99.05 90.91 C 102.19 85.29 106.43 80.42 110.51 75.48 C 116.03 68.61 122.07 61.43 130.94 59.01 C 129.22 65.63 125.65 72.91 129.34 79.55 C 132.05 85.60 139.30 86.42 145.08 87.21 C 154.67 88.95 164.46 87.76 174.09 89.09 C 178.13 89.60 182.33 89.76 186.21 88.29 C 188.48 88.07 190.75 87.65 192.95 87.00 C 198.01 87.05 202.90 85.68 207.59 83.89 C 206.33 77.03 201.38 71.94 198.06 66.06 C 196.76 63.90 195.37 61.41 192.59 61.09 C 192.23 59.56 191.98 58.01 191.73 56.46 C 197.51 57.83 201.93 62.00 206.69 65.27 C 215.68 71.84 220.19 82.36 224.97 92.03 C 228.52 101.05 232.96 110.07 233.29 119.96 C 233.54 127.31 233.28 134.66 233.28 142.02 C 233.43 147.67 230.48 152.68 229.31 158.08 C 228.52 161.95 227.06 165.65 224.89 168.96 C 222.10 165.55 221.44 161.15 220.60 156.98 C 218.16 163.37 217.09 170.18 214.75 176.61 C 211.12 186.99 205.58 196.55 200.33 206.17 C 198.46 210.46 195.90 214.38 193.58 218.42 C 191.14 219.98 189.03 221.98 187.13 224.15 C 182.59 229.28 177.56 233.95 173.07 239.13 C 171.91 240.59 170.55 242.05 170.09 243.91 C 170.21 245.54 170.62 247.13 170.95 248.74 C 173.53 247.55 176.14 246.24 178.08 244.10 C 184.52 237.03 191.11 230.11 197.79 223.28 C 198.22 223.68 199.08 224.48 199.50 224.88 C 196.51 230.85 192.26 236.03 188.88 241.76 C 186.27 246.24 182.52 249.90 179.81 254.30 C 180.32 254.25 181.34 254.15 181.85 254.10 C 185.64 257.31 190.04 259.64 194.28 262.20 C 203.40 256.07 210.63 247.65 216.41 238.38 C 219.71 232.74 224.41 228.01 227.20 222.06 C 229.25 217.94 230.96 213.67 232.50 209.33 C 233.43 209.95 234.37 210.56 235.31 211.18 C 233.64 221.48 229.51 231.07 225.74 240.72 C 219.77 254.26 211.17 266.40 201.95 277.91 C 206.79 275.17 211.61 272.34 216.11 269.06 C 223.49 263.19 230.12 256.45 236.73 249.73 C 242.59 243.80 246.64 236.41 252.26 230.28 C 259.24 221.63 267.19 213.79 273.68 204.75 C 278.23 198.46 284.39 192.64 285.07 184.44 C 277.82 180.27 270.33 176.48 263.49 171.62 C 258.11 168.54 253.74 163.74 247.75 161.77 C 243.19 174.75 233.54 184.77 225.92 195.92 C 225.12 194.45 223.10 193.12 224.03 191.25 C 226.45 183.61 233.05 178.06 235.00 170.21 C 236.32 164.74 238.25 159.42 239.12 153.85 C 240.27 143.60 239.75 133.28 239.90 122.99 C 240.18 115.32 237.88 107.91 237.43 100.29 C 234.78 83.66 227.94 67.92 219.41 53.50 C 217.28 49.80 214.88 46.20 211.66 43.36 C 207.74 39.72 202.80 37.54 198.36 34.64 C 194.93 32.46 191.70 30.00 188.37 27.68 C 182.76 23.60 175.79 22.23 169.18 20.67 C 166.90 19.96 164.52 19.47 162.13 19.81 C 153.00 20.88 143.78 22.98 135.85 27.82 M 280.99 75.50 C 280.61 75.39 279.87 75.16 279.49 75.04 C 279.72 76.24 279.95 77.44 280.18 78.64 C 273.55 89.16 269.11 100.89 262.73 111.57 C 259.48 118.60 255.08 125.13 252.79 132.56 C 253.91 133.06 255.05 133.53 256.20 133.97 C 258.37 135.75 260.96 136.83 263.65 137.56 C 266.11 132.21 269.42 127.32 272.13 122.11 C 276.37 113.13 282.17 104.96 285.90 95.73 C 288.10 89.83 293.07 85.21 294.26 78.93 C 295.28 75.18 290.81 74.12 288.50 72.34 C 285.56 72.19 282.69 72.87 280.99 75.50 M 20.58 75.89 C 19.81 77.25 18.91 78.57 18.41 80.07 C 18.61 81.72 19.24 83.28 19.74 84.86 C 18.23 86.17 20.74 86.80 21.50 87.66 C 28.60 98.23 35.20 109.12 42.45 119.59 C 46.08 124.94 48.84 130.98 53.45 135.60 C 55.45 135.15 57.25 134.13 59.11 133.31 C 60.78 132.26 63.51 131.44 63.29 128.99 C 62.36 124.81 59.19 121.66 57.01 118.11 C 52.67 111.12 48.07 104.30 43.90 97.21 C 39.36 89.62 33.39 82.93 29.55 74.92 C 26.53 74.59 23.38 74.54 20.58 75.89 M 154.31 95.17 C 149.40 95.66 144.46 95.82 139.52 95.94 C 140.85 100.73 142.49 105.42 144.15 110.11 C 155.50 110.43 166.86 110.31 178.22 110.23 C 179.46 104.97 180.19 99.60 180.44 94.21 C 171.75 95.22 163.00 94.21 154.31 95.17 M 184.15 94.90 C 182.76 99.93 181.76 105.06 181.56 110.28 C 191.19 110.59 201.37 109.63 209.94 104.90 C 203.95 102.69 196.85 105.30 191.54 101.10 C 195.39 99.33 199.30 97.62 202.78 95.17 C 196.60 94.43 190.36 94.58 184.15 94.90 M 116.35 96.16 C 120.90 100.50 128.04 97.73 132.55 102.03 C 127.12 106.49 119.72 105.00 113.25 105.33 C 121.06 110.84 131.21 110.54 140.34 110.20 C 140.27 105.40 139.80 100.61 138.99 95.88 C 131.45 95.64 123.87 95.39 116.35 96.16 M 200.45 111.57 C 193.76 113.30 186.80 113.15 179.99 114.01 C 167.20 114.64 154.28 115.01 141.53 113.54 C 135.33 112.83 129.00 113.69 122.90 112.18 C 118.26 111.05 113.71 109.59 109.21 108.02 C 109.24 112.99 108.70 118.13 110.18 122.95 C 111.92 127.81 117.20 129.54 121.52 131.39 C 127.20 133.53 132.71 136.85 138.97 136.78 C 142.96 137.00 146.83 135.83 150.49 134.36 C 156.34 131.89 162.85 132.36 169.04 132.70 C 174.16 132.98 178.89 135.30 183.99 135.65 C 192.45 136.36 201.03 133.70 207.98 128.92 C 214.54 123.83 215.55 114.82 214.84 107.09 C 210.10 108.77 205.36 110.45 200.45 111.57 M 56.00 138.88 C 51.71 142.10 46.55 144.24 42.96 148.31 C 41.60 151.33 44.25 154.44 47.05 155.30 C 50.00 154.59 52.37 152.57 54.83 150.91 C 61.68 145.98 68.91 141.61 76.09 137.17 C 81.08 134.46 79.10 128.06 79.12 123.50 C 71.24 128.36 63.47 133.40 56.00 138.88 M 202.59 135.53 C 194.55 138.69 185.64 139.22 177.20 137.54 C 170.87 136.70 164.63 133.58 158.17 135.09 C 150.77 136.79 143.45 140.45 135.68 139.23 C 126.38 137.41 117.72 133.34 109.52 128.72 C 111.06 135.23 115.75 140.62 121.93 143.17 C 129.03 146.94 137.24 146.43 145.01 146.33 C 151.38 146.30 157.49 144.28 163.71 143.19 C 163.68 152.46 163.60 161.73 163.67 171.01 C 163.77 176.03 162.71 180.98 162.64 185.99 C 162.46 187.37 163.26 189.75 165.02 189.29 C 173.48 188.35 179.24 181.49 185.63 176.65 C 201.64 164.60 210.17 145.44 215.20 126.58 C 211.10 129.68 207.45 133.57 202.59 135.53 M 244.92 132.33 C 244.76 135.90 244.70 139.48 244.70 143.05 C 250.72 146.93 257.08 150.25 263.22 153.92 C 265.92 155.38 268.65 157.21 271.81 157.33 C 274.72 155.31 275.73 151.79 276.45 148.51 C 265.82 143.38 255.85 136.87 244.92 132.33 M 35.16 179.18 C 34.15 180.37 32.88 181.88 33.63 183.53 C 35.73 190.62 40.47 196.46 44.78 202.33 C 47.97 206.71 51.62 210.73 55.34 214.66 C 62.27 222.04 68.99 229.73 77.06 235.90 C 73.16 228.05 67.44 221.31 63.31 213.60 C 60.79 208.86 57.77 204.41 55.35 199.62 C 50.72 190.77 47.75 181.08 42.35 172.66 C 39.91 174.79 37.33 176.78 35.16 179.18 M 110.21 186.71 C 111.14 195.04 115.04 202.62 117.72 210.47 C 120.56 216.83 122.05 223.97 126.67 229.38 C 128.71 231.87 130.67 234.43 132.56 237.05 C 131.53 238.31 130.44 239.51 129.27 240.64 C 124.86 235.09 120.20 229.74 115.65 224.30 C 112.13 220.05 110.16 214.70 106.14 210.83 C 108.07 216.43 110.78 221.71 112.98 227.21 C 114.86 231.37 116.69 235.66 119.62 239.21 C 120.20 243.58 122.39 247.45 124.94 250.96 C 128.81 256.34 131.23 262.57 134.89 268.08 C 140.02 275.59 144.92 283.28 150.52 290.46 C 153.13 293.73 157.00 295.58 160.61 297.52 C 163.05 298.69 165.67 300.16 168.49 299.67 C 171.97 299.10 175.19 297.60 178.41 296.25 C 177.92 294.94 177.43 293.63 176.94 292.32 C 175.98 292.12 175.02 291.91 174.07 291.67 C 167.86 283.63 160.69 276.31 155.24 267.68 C 151.95 262.37 147.88 257.07 147.64 250.56 C 153.72 250.81 156.90 256.49 160.64 260.42 C 169.27 269.57 176.89 279.95 187.62 286.83 C 191.08 283.62 195.09 281.13 199.24 278.94 C 186.67 272.84 175.06 264.75 165.06 254.98 C 160.99 251.38 156.96 247.74 153.13 243.88 C 147.15 237.85 140.27 232.75 134.73 226.28 C 127.27 217.73 121.92 207.68 115.57 198.35 C 113.27 194.71 112.38 190.41 110.21 186.71 M 134.08 200.22 C 136.60 205.21 139.13 210.21 142.07 214.97 C 145.56 220.64 150.40 225.26 155.00 230.00 C 156.67 231.60 158.94 233.78 161.43 232.49 C 164.84 230.70 167.45 227.80 170.28 225.27 C 177.50 218.69 184.17 211.23 188.28 202.28 C 177.01 205.68 164.89 209.40 153.17 205.95 C 146.87 203.84 140.54 201.80 134.08 200.22 Z" />
<path fill="#000000" opacity="1.00" d=" M 115.62 114.64 C 123.32 116.74 131.02 119.03 138.97 119.98 C 142.91 120.38 146.67 121.74 150.03 123.81 C 143.37 129.31 134.10 129.13 126.20 126.94 C 121.93 125.71 118.17 122.88 115.80 119.14 C 114.86 117.80 115.52 116.12 115.62 114.64 M 116.54 117.05 C 117.76 119.18 119.00 121.47 121.18 122.77 C 128.83 127.35 138.49 127.74 146.82 124.82 C 145.82 123.89 144.98 122.58 143.50 122.45 C 134.47 120.91 125.58 118.55 116.54 117.05 Z" />
<path fill="#000000" opacity="1.00" d=" M 184.74 119.65 C 192.08 118.53 199.26 116.61 206.51 115.06 C 206.19 122.86 198.63 128.81 191.03 128.19 C 184.58 127.65 176.91 128.20 172.16 122.93 C 176.22 121.38 180.45 120.30 184.74 119.65 M 174.76 123.42 C 180.00 126.40 186.24 126.16 192.07 126.57 C 197.83 126.94 203.31 122.77 204.56 117.14 C 194.63 119.27 184.64 121.05 174.76 123.42 Z" />
</g>
<g id="#4b4b4bff">
<path fill="#4b4b4b" opacity="1.00" d=" M 135.85 27.82 C 143.78 22.98 153.00 20.88 162.13 19.81 C 164.52 19.47 166.90 19.96 169.18 20.67 C 165.50 20.90 160.70 20.89 159.07 24.95 C 154.01 35.05 149.89 45.72 147.73 56.84 C 151.51 51.13 155.29 44.86 161.97 42.18 C 162.53 51.47 161.62 60.95 164.15 70.02 C 165.54 75.70 168.44 81.25 173.37 84.62 C 177.04 87.38 181.74 88.06 186.21 88.29 C 182.33 89.76 178.13 89.60 174.09 89.09 C 164.46 87.76 154.67 88.95 145.08 87.21 C 139.30 86.42 132.05 85.60 129.34 79.55 C 125.65 72.91 129.22 65.63 130.94 59.01 C 122.07 61.43 116.03 68.61 110.51 75.48 C 106.43 80.42 102.19 85.29 99.05 90.91 C 96.04 96.03 94.63 101.92 91.40 106.93 C 91.44 101.02 92.27 95.15 93.39 89.36 C 94.68 82.88 95.40 76.21 98.02 70.09 C 102.42 59.84 109.37 50.98 116.51 42.52 C 121.87 36.34 128.61 31.56 135.85 27.82 Z" />
<path fill="#4b4b4b" opacity="1.00" d=" M 192.59 61.09 C 195.37 61.41 196.76 63.90 198.06 66.06 C 201.38 71.94 206.33 77.03 207.59 83.89 C 202.90 85.68 198.01 87.05 192.95 87.00 C 194.83 86.03 197.55 85.28 197.65 82.74 C 199.04 75.03 194.11 68.35 192.59 61.09 Z" />
<path fill="#4b4b4b" opacity="1.00" d=" M 288.50 72.34 C 290.81 74.12 295.28 75.18 294.26 78.93 C 293.07 85.21 288.10 89.83 285.90 95.73 C 282.17 104.96 276.37 113.13 272.13 122.11 C 269.42 127.32 266.11 132.21 263.65 137.56 C 260.96 136.83 258.37 135.75 256.20 133.97 C 257.44 133.84 258.68 133.68 259.91 133.46 C 261.52 133.06 263.13 132.61 264.75 132.18 C 264.24 130.94 263.75 129.70 263.26 128.45 C 265.55 126.27 266.96 123.43 267.14 120.26 C 268.07 119.53 269.01 118.81 269.96 118.09 C 270.16 116.59 270.35 115.08 270.54 113.58 C 271.64 112.89 272.75 112.20 273.86 111.51 C 274.00 110.15 274.15 108.80 274.30 107.45 C 275.27 106.64 276.24 105.83 277.22 105.03 C 276.91 103.43 276.61 101.84 276.31 100.24 C 277.94 99.65 279.58 99.07 281.22 98.49 C 280.84 96.79 280.46 95.08 280.10 93.37 C 281.49 93.02 282.89 92.68 284.30 92.33 C 284.32 90.75 284.35 89.16 284.38 87.58 C 285.91 86.80 287.44 86.03 288.97 85.25 C 286.98 81.93 283.91 79.66 280.18 78.64 C 279.95 77.44 279.72 76.24 279.49 75.04 C 279.87 75.16 280.61 75.39 280.99 75.50 C 283.41 76.25 285.88 76.83 288.37 77.28 C 288.41 75.63 288.46 73.99 288.50 72.34 Z" />
<path fill="#4b4b4b" opacity="1.00" d=" M 20.58 75.89 C 23.38 74.54 26.53 74.59 29.55 74.92 C 33.39 82.93 39.36 89.62 43.90 97.21 C 48.07 104.30 52.67 111.12 57.01 118.11 C 59.19 121.66 62.36 124.81 63.29 128.99 C 63.51 131.44 60.78 132.26 59.11 133.31 C 59.18 132.03 59.25 130.75 59.33 129.48 C 59.39 128.55 59.44 127.63 59.50 126.71 C 58.81 126.45 57.44 125.93 56.76 125.67 C 56.46 125.54 55.86 125.29 55.56 125.16 C 55.34 123.60 55.22 122.03 55.08 120.46 C 53.77 120.22 52.45 119.98 51.14 119.74 C 51.35 117.76 51.56 115.79 51.78 113.83 C 50.37 113.78 48.96 113.73 47.55 113.68 C 47.44 112.05 47.34 110.42 47.23 108.79 C 46.01 108.36 44.79 107.93 43.57 107.49 C 43.08 105.98 42.60 104.47 42.10 102.97 C 41.44 102.63 40.12 101.96 39.46 101.63 L 38.65 101.15 C 39.25 99.19 39.86 97.25 40.48 95.30 C 38.80 95.37 37.13 95.45 35.45 95.52 C 35.38 93.92 35.32 92.33 35.26 90.73 C 34.14 90.43 33.02 90.11 31.91 89.79 L 31.05 89.50 C 31.44 87.40 31.65 85.28 31.90 83.16 C 30.50 83.30 29.11 83.44 27.72 83.64 C 27.39 83.84 26.73 84.24 26.40 84.44 C 24.74 85.47 23.12 86.56 21.50 87.66 C 20.74 86.80 18.23 86.17 19.74 84.86 C 21.17 83.04 22.63 81.24 24.12 79.47 C 22.94 78.27 21.75 77.09 20.58 75.89 Z" />
<path fill="#4b4b4b" opacity="1.00" d=" M 154.31 95.17 C 163.00 94.21 171.75 95.22 180.44 94.21 C 180.19 99.60 179.46 104.97 178.22 110.23 C 166.86 110.31 155.50 110.43 144.15 110.11 C 142.49 105.42 140.85 100.73 139.52 95.94 C 144.46 95.82 149.40 95.66 154.31 95.17 Z" />
<path fill="#4b4b4b" opacity="1.00" d=" M 184.15 94.90 C 190.36 94.58 196.60 94.43 202.78 95.17 C 199.30 97.62 195.39 99.33 191.54 101.10 C 196.85 105.30 203.95 102.69 209.94 104.90 C 201.37 109.63 191.19 110.59 181.56 110.28 C 181.76 105.06 182.76 99.93 184.15 94.90 Z" />
<path fill="#4b4b4b" opacity="1.00" d=" M 116.35 96.16 C 123.87 95.39 131.45 95.64 138.99 95.88 C 139.80 100.61 140.27 105.40 140.34 110.20 C 131.21 110.54 121.06 110.84 113.25 105.33 C 119.72 105.00 127.12 106.49 132.55 102.03 C 128.04 97.73 120.90 100.50 116.35 96.16 Z" />
<path fill="#4b4b4b" opacity="1.00" d=" M 56.00 138.88 C 63.47 133.40 71.24 128.36 79.12 123.50 C 79.10 128.06 81.08 134.46 76.09 137.17 C 68.91 141.61 61.68 145.98 54.83 150.91 C 52.37 152.57 50.00 154.59 47.05 155.30 C 44.25 154.44 41.60 151.33 42.96 148.31 C 46.55 144.24 51.71 142.10 56.00 138.88 Z" />
<path fill="#4b4b4b" opacity="1.00" d=" M 202.59 135.53 C 207.45 133.57 211.10 129.68 215.20 126.58 C 210.17 145.44 201.64 164.60 185.63 176.65 C 179.24 181.49 173.48 188.35 165.02 189.29 C 163.26 189.75 162.46 187.37 162.64 185.99 C 162.71 180.98 163.77 176.03 163.67 171.01 C 163.60 161.73 163.68 152.46 163.71 143.19 C 157.49 144.28 151.38 146.30 145.01 146.33 C 137.24 146.43 129.03 146.94 121.93 143.17 C 115.75 140.62 111.06 135.23 109.52 128.72 C 117.72 133.34 126.38 137.41 135.68 139.23 C 143.45 140.45 150.77 136.79 158.17 135.09 C 164.63 133.58 170.87 136.70 177.20 137.54 C 185.64 139.22 194.55 138.69 202.59 135.53 Z" />
<path fill="#4b4b4b" opacity="1.00" d=" M 244.92 132.33 C 255.85 136.87 265.82 143.38 276.45 148.51 C 275.73 151.79 274.72 155.31 271.81 157.33 C 268.65 157.21 265.92 155.38 263.22 153.92 C 257.08 150.25 250.72 146.93 244.70 143.05 C 244.70 139.48 244.76 135.90 244.92 132.33 Z" />
<path fill="#4b4b4b" opacity="1.00" d=" M 211.00 232.01 C 222.72 219.82 229.44 204.01 238.90 190.21 C 238.86 197.37 236.97 204.28 235.31 211.18 C 234.37 210.56 233.43 209.95 232.50 209.33 C 230.96 213.67 229.25 217.94 227.20 222.06 C 224.41 228.01 219.71 232.74 216.41 238.38 C 210.63 247.65 203.40 256.07 194.28 262.20 C 190.04 259.64 185.64 257.31 181.85 254.10 C 190.02 250.20 194.26 241.39 202.30 237.27 C 201.73 239.91 201.11 242.54 200.44 245.16 C 203.81 240.65 207.19 236.15 211.00 232.01 Z" />
<path fill="#4b4b4b" opacity="1.00" d=" M 192.81 220.02 C 197.39 216.14 200.50 210.54 206.22 208.10 C 204.95 214.04 202.37 219.57 199.50 224.88 C 199.08 224.48 198.22 223.68 197.79 223.28 C 191.11 230.11 184.52 237.03 178.08 244.10 C 176.14 246.24 173.53 247.55 170.95 248.74 C 170.62 247.13 170.21 245.54 170.09 243.91 C 170.55 242.05 171.91 240.59 173.07 239.13 C 177.56 233.95 182.59 229.28 187.13 224.15 C 189.03 221.98 191.14 219.98 193.58 218.42 C 193.39 218.82 193.00 219.62 192.81 220.02 Z" />
<path fill="#4b4b4b" opacity="1.00" d=" M 119.62 239.21 C 126.04 245.23 131.30 252.31 137.31 258.71 C 144.96 267.39 153.85 274.83 162.38 282.61 C 166.07 285.84 168.96 290.57 174.07 291.67 C 175.02 291.91 175.98 292.12 176.94 292.32 C 177.43 293.63 177.92 294.94 178.41 296.25 C 175.19 297.60 171.97 299.10 168.49 299.67 C 165.67 300.16 163.05 298.69 160.61 297.52 C 157.00 295.58 153.13 293.73 150.52 290.46 C 144.92 283.28 140.02 275.59 134.89 268.08 C 131.23 262.57 128.81 256.34 124.94 250.96 C 122.39 247.45 120.20 243.58 119.62 239.21 Z" />
</g>
<g id="#ffffffff">
<path fill="#ffffff" opacity="1.00" d=" M 279.46 81.10 C 281.27 81.14 283.10 81.17 284.92 81.26 C 284.70 83.10 284.36 84.92 284.04 86.75 C 280.95 86.34 279.68 83.99 279.46 81.10 Z" />
<path fill="#ffffff" opacity="1.00" d=" M 26.40 84.44 C 26.73 84.24 27.39 83.84 27.72 83.64 C 28.59 85.77 29.47 87.89 30.34 90.02 C 28.37 90.01 26.39 90.00 24.42 89.98 C 25.05 88.12 25.67 86.26 26.40 84.44 Z" />
<path fill="#ffffff" opacity="1.00" d=" M 275.54 88.49 C 277.90 88.23 280.27 88.02 282.64 87.84 C 281.91 90.09 280.40 91.89 278.46 93.21 C 277.49 91.63 276.51 90.06 275.54 88.49 Z" />
<path fill="#ffffff" opacity="1.00" d=" M 31.05 89.50 L 31.91 89.79 C 32.81 91.86 33.58 93.98 34.35 96.10 C 32.18 95.91 30.02 95.73 27.85 95.57 C 28.97 93.57 30.10 91.58 31.05 89.50 Z" />
<path fill="#ffffff" opacity="1.00" d=" M 272.46 95.37 C 274.68 94.45 277.03 93.94 279.41 93.68 C 278.93 96.53 277.78 99.56 274.37 99.47 C 273.73 98.10 273.10 96.73 272.46 95.37 Z" />
<path fill="#ffffff" opacity="1.00" d=" M 31.39 101.49 C 32.60 99.81 33.79 98.12 35.19 96.60 C 36.84 97.72 37.49 99.70 38.41 101.37 C 36.09 101.80 33.72 101.81 31.39 101.49 Z" />
<path fill="#ffffff" opacity="1.00" d=" M 268.56 101.73 C 270.79 100.87 273.07 100.17 275.40 99.61 C 274.93 102.04 274.20 104.41 273.19 106.66 C 271.61 105.05 270.07 103.40 268.56 101.73 Z" />
<path fill="#ffffff" opacity="1.00" d=" M 36.54 107.99 C 37.24 105.71 37.95 103.43 38.65 101.15 L 39.46 101.63 C 40.52 103.72 41.47 105.87 42.43 108.01 C 40.47 108.00 38.50 107.99 36.54 107.99 Z" />
<path fill="#ffffff" opacity="1.00" d=" M 266.61 107.71 C 268.85 107.40 271.11 107.14 273.36 106.85 C 272.48 108.81 271.52 110.74 270.49 112.62 C 269.35 111.99 268.22 111.37 267.08 110.75 C 266.97 109.99 266.73 108.47 266.61 107.71 Z" />
<path fill="#ffffff" opacity="1.00" d=" M 40.37 113.90 C 41.29 112.04 42.33 110.25 43.53 108.56 C 44.38 109.67 45.22 110.79 46.07 111.90 C 45.78 112.47 45.21 113.59 44.92 114.16 C 43.40 114.07 41.88 113.99 40.37 113.90 Z" />
<path fill="#ffffff" opacity="1.00" d=" M 264.06 113.80 C 265.55 113.85 267.03 113.90 268.52 113.95 C 267.78 115.86 267.01 117.76 266.26 119.66 C 265.02 118.47 263.79 117.28 262.56 116.10 C 262.93 115.52 263.68 114.38 264.06 113.80 Z" />
<path fill="#ffffff" opacity="1.00" d=" M 46.28 114.29 C 48.37 115.59 49.66 117.65 50.47 119.93 C 48.52 119.98 46.58 120.03 44.63 120.08 C 45.17 118.15 45.72 116.21 46.28 114.29 Z" />
<path fill="#ffffff" opacity="1.00" d=" M 116.54 117.05 C 125.58 118.55 134.47 120.91 143.50 122.45 C 144.98 122.58 145.82 123.89 146.82 124.82 C 138.49 127.74 128.83 127.35 121.18 122.77 C 119.00 121.47 117.76 119.18 116.54 117.05 Z" />
<path fill="#ffffff" opacity="1.00" d=" M 174.76 123.42 C 184.64 121.05 194.63 119.27 204.56 117.14 C 203.31 122.77 197.83 126.94 192.07 126.57 C 186.24 126.16 180.00 126.40 174.76 123.42 Z" />
<path fill="#ffffff" opacity="1.00" d=" M 259.55 120.15 C 261.53 120.10 263.53 120.05 265.52 120.01 C 264.88 122.32 264.10 124.59 263.12 126.78 C 261.22 125.00 259.84 122.78 259.55 120.15 Z" />
<path fill="#ffffff" opacity="1.00" d=" M 50.32 120.44 C 52.82 121.45 54.26 123.51 54.42 126.21 C 52.13 125.99 49.84 125.78 47.56 125.52 C 48.49 123.83 49.41 122.13 50.32 120.44 Z" />
<path fill="#ffffff" opacity="1.00" d=" M 56.76 125.67 C 57.44 125.93 58.81 126.45 59.50 126.71 C 59.44 127.63 59.39 128.55 59.33 129.48 C 56.93 130.92 54.41 132.14 51.81 133.16 C 52.80 130.27 54.49 127.71 56.76 125.67 Z" />
<path fill="#ffffff" opacity="1.00" d=" M 255.20 128.10 C 257.89 128.16 260.58 128.26 263.26 128.45 C 263.75 129.70 264.24 130.94 264.75 132.18 C 263.13 132.61 261.52 133.06 259.91 133.46 C 258.31 131.69 256.70 129.95 255.20 128.10 Z" />
</g>
</svg>
